<svg id="Capa_1" enable-background="new 0 0 512 512" height="512" viewBox="0 0 512 512" width="512" xmlns="http://www.w3.org/2000/svg"><g><path d="m501.519 242.204-154.745-122.976-54.095 36.063 16.641 24.962 35.905-23.937 72.691 57.767c-8.335-.834-17.296-1.312-26.916-1.312-80.29 0-114.202 32.989-115.606 34.394l-4.394 4.394v6.213c0 8.271-6.729 15-15 15s-15-6.729-15-15v-6.358l-4.569-4.421c-1.444-1.397-36.283-34.221-116.431-34.221-9.198 0-17.781.437-25.783 1.206l72.558-57.662 35.905 23.937 16.641-24.962-54.095-36.063-153.612 122.075c-6.009 4.287-7.609 6.284-11.614 10.256v6.213c0 37.414 7.271 69.772 21.611 96.177 13.006 23.947 38.221 38.823 65.806 38.823h66.16c27.585 0 52.801-14.877 65.807-38.825 8.791-16.186 14.913-34.617 18.345-55.066 5.588 2.493 11.767 3.891 18.271 3.891s12.683-1.398 18.271-3.891c3.432 20.449 9.554 38.88 18.345 55.066 13.008 23.948 38.224 38.825 65.808 38.825h66.159c27.585 0 52.801-14.876 65.807-38.823 14.339-26.406 21.61-58.765 21.61-96.177v-6.358c-4.363-4.194-5.523-5.614-10.481-9.21zm-308.497 97.424c-7.753 14.275-22.868 23.144-39.445 23.144h-66.16c-16.577 0-31.691-8.867-39.443-23.141-11.033-20.315-17.035-45.407-17.873-74.667 10.321-7.056 38.461-22.192 89.898-22.192 51.539 0 80.275 15.198 90.895 22.308-.85 29.205-6.852 54.257-17.872 74.548zm271.003.003c-7.752 14.274-22.866 23.141-39.443 23.141h-66.159c-16.577 0-31.691-8.868-39.444-23.144-11.035-20.318-17.039-45.409-17.877-74.664 10.32-7.056 38.461-22.192 89.898-22.192 51.539 0 80.275 15.198 90.895 22.308-.85 29.209-6.851 54.262-17.87 74.551z"/></g></svg>