<svg width="512" height="512" xmlns="http://www.w3.org/2000/svg">

 <g>
  <title>background</title>
  <rect fill="none" id="canvas_background" height="402" width="582" y="-1" x="-1"/>
 </g>
 <g>
  <title>Layer 1</title>
  <g id="svg_1">
   <path id="svg_2" d="m468.421,445.688c-2.815,-19.285 -11.279,-37.058 -24.478,-51.398c-10.554,-11.468 -23.551,-20.091 -38.042,-25.341c3.455,-19.635 2.978,-40.17 -1.952,-60.443l-17.648,-72.572l0,-52.942l72.074,0l0,-30l-76.783,0l-20.4,-52.885l41.132,-3.249l0,-34.611l-128.998,-62.247l-20.083,0l-65.87,47.978l-55.698,105.015l-78.05,0l0,30l72.074,0l0,52.942l-17.648,72.572c-4.93,20.273 -5.407,40.808 -1.952,60.443c-14.49,5.25 -27.487,13.873 -38.042,25.341c-13.198,14.341 -21.662,32.114 -24.478,51.398l-9.681,66.311l444.203,0l-9.68,-66.312zm-331.22,-130.093l8.508,-34.987c9.749,8.205 22.317,13.161 36.027,13.161l37.906,0c14.19,0 27.053,-5.786 36.357,-15.122c9.304,9.335 22.167,15.122 36.357,15.122l37.906,0c13.709,0 26.278,-4.956 36.027,-13.161l8.508,34.987c12.618,51.888 -11.338,105.935 -58.257,131.432l-60.54,32.901l-60.542,-32.901c-46.919,-25.497 -70.875,-79.544 -58.257,-131.432zm73.432,-247.444l52.378,-38.151l3.456,0l84.583,40.815l-72.519,5.728l2.361,29.907l49.095,-3.878l19.449,50.42l-183.801,0l44.998,-84.841zm145.668,114.842l0,54.739c0,14.357 -11.681,26.038 -26.037,26.038l-37.906,0c-11.776,0 -21.357,-9.581 -21.357,-21.357l-30,0c0,11.776 -9.581,21.357 -21.357,21.357l-37.906,0c-14.356,0 -26.037,-11.68 -26.037,-26.038l0,-54.739l200.6,0zm-283.036,267.029c3.484,-23.867 19.173,-43.427 41.03,-52.118c12.453,31.414 35.585,58.497 66.839,75.481l15.85,8.614l-128.388,0l4.669,-31.977zm241.751,31.978l15.85,-8.614c31.254,-16.984 54.386,-44.068 66.839,-75.481c21.857,8.691 37.546,28.25 41.03,52.118l4.669,31.977l-128.388,0z"/>
  </g>
  <rect rx="1" id="svg_4" height="40" width="63" y="193.05" x="168.5" stroke-width="12.5" stroke="#000" fill="#fff"/>
  <rect stroke="#000" rx="1" id="svg_5" height="40" width="63" y="193.05" x="279.75" stroke-width="12.5" fill="#fff"/>
  <line stroke-linecap="null" stroke-linejoin="null" id="svg_6" y2="214.05" x2="276.5" y1="214.05" x1="233.5" fill-opacity="null" stroke-opacity="null" stroke-width="12.5" stroke="#000" fill="none"/>
  <line stroke-linecap="null" stroke-linejoin="null" id="svg_7" y2="201.05" x2="148.5" y1="215.05" x1="166.5" fill-opacity="null" stroke-opacity="null" stroke-width="12.5" stroke="#000" fill="none"/>
  <line stroke="#000" stroke-linecap="null" stroke-linejoin="null" id="svg_8" y2="201.05" x2="361.500001" y1="215.05" x1="344" fill-opacity="null" stroke-opacity="null" stroke-width="12.5" fill="none"/>
  <path stroke="#000" id="svg_10" d="m442.541826,34.391907c-1.655793,0 -2.991207,1.341402 -2.991207,2.994201l0,27.609526l-18.102939,7.916667c-1.515066,0.664713 -2.203732,2.431291 -1.539019,3.946357c0.491049,1.122825 1.586926,1.793526 2.739694,1.793526c0.401223,0 0.811428,-0.080843 1.200675,-0.254507l19.839575,-8.677194c0.014971,-0.005988 0.026948,-0.011977 0.038925,-0.017965l0.011977,-0.005988c0.044913,-0.017965 0.068867,-0.059884 0.110785,-0.074855c0.311397,-0.155698 0.601834,-0.338345 0.835382,-0.583869c0.101803,-0.101803 0.158693,-0.233548 0.236542,-0.350322c0.143722,-0.191629 0.302414,-0.380264 0.389246,-0.610817c0.071861,-0.179652 0.077849,-0.374275 0.11378,-0.565904c0.038925,-0.191629 0.11378,-0.362298 0.11378,-0.556921l0,-29.570728c0,-1.649805 -1.341402,-2.991207 -2.997195,-2.991207zm46.787383,5.111101c0,-11.473778 -9.296994,-20.773766 -20.773766,-20.773766c-5.802761,0 -11.036624,2.383384 -14.791352,6.218955c-3.584058,-0.95515 -7.332798,-1.512071 -11.219271,-1.512071c-3.994264,0 -7.844806,0.583869 -11.518691,1.589921c-3.769699,-3.87749 -9.03051,-6.296804 -14.866207,-6.296804c-11.473778,0 -20.773766,9.299988 -20.773766,20.773766c0,5.524301 2.17379,10.530605 5.691976,14.252396c-1.326431,4.161939 -2.051028,8.593357 -2.051028,13.198437c0,24.03445 19.483265,43.517716 43.517716,43.517716c24.03445,0 43.517716,-19.483265 43.517716,-43.517716c0,-4.715866 -0.775498,-9.243098 -2.161813,-13.497858c3.365482,-3.685861 5.428486,-8.572397 5.428486,-13.952976zm-46.784389,61.982952c-19.046112,0 -34.535113,-15.491995 -34.535113,-34.532119c0,-19.043118 15.489001,-34.535113 34.535113,-34.535113c19.046112,0 34.532119,15.489001 34.532119,34.535113c0,19.046112 -15.491995,34.532119 -34.532119,34.532119z" fill-opacity="null" stroke-opacity="null" stroke-width="12.5" fill="none"/>
 </g>
</svg>